<svg width="512" height="512" viewBox="0 0 512 512" xmlns="http://www.w3.org/2000/svg">
  <!-- 背景渐变 -->
  <defs>
    <linearGradient id="cloudGradient" x1="0%" y1="0%" x2="100%" y2="100%">
      <stop offset="0%" style="stop-color:#4285F4;stop-opacity:1" />
      <stop offset="100%" style="stop-color:#34A853;stop-opacity:1" />
    </linearGradient>
    <linearGradient id="folderGradient" x1="0%" y1="0%" x2="100%" y2="100%">
      <stop offset="0%" style="stop-color:#FBBC04;stop-opacity:1" />
      <stop offset="100%" style="stop-color:#EA4335;stop-opacity:1" />
    </linearGradient>
  </defs>

  <!-- 云朵形状 -->
  <path d="M 256 140
           C 220 140 190 165 180 198
           C 150 200 128 228 128 260
           C 128 295 156 324 192 324
           L 352 324
           C 387 324 416 295 416 260
           C 416 228 394 200 364 198
           C 354 165 324 140 288 140
           C 280 140 272 141 264 143
           C 261 141 258 140 256 140 Z"
        fill="url(#cloudGradient)" />

  <!-- 文件夹图标 -->
  <path d="M 180 240
           L 180 360
           C 180 375 192 387 207 387
           L 332 387
           C 347 387 359 375 359 360
           L 359 280
           C 359 265 347 253 332 253
           L 240 253
           L 220 233
           C 215 228 208 225 200 225
           L 207 225
           C 192 225 180 237 180 252
           Z"
        fill="url(#folderGradient)"
        opacity="0.9" />

  <!-- 上传箭头 -->
  <g transform="translate(256, 300)">
    <path d="M -15 10 L 0 -15 L 15 10 Z" fill="white" opacity="0.9" />
    <rect x="-5" y="0" width="10" height="30" fill="white" opacity="0.9" rx="2" />
  </g>
</svg>
